<?xml version="1.0" encoding="UTF-8"?>
<!DOCTYPE svg PUBLIC "-//W3C//DTD SVG 1.1//EN" "http://www.w3.org/Graphics/SVG/1.1/DTD/svg11.dtd">
<!-- Creator: CorelDRAW 2021 (64-Bit) -->
<svg xmlns="http://www.w3.org/2000/svg" xml:space="preserve" width="176.389mm" height="176.389mm" version="1.1" style="shape-rendering:geometricPrecision; text-rendering:geometricPrecision; image-rendering:optimizeQuality; fill-rule:evenodd; clip-rule:evenodd"
viewBox="0 0 8607.87 8607.87"
 xmlns:xlink="http://www.w3.org/1999/xlink"
 xmlns:xodm="http://www.corel.com/coreldraw/odm/2003">
 <defs>
  <style type="text/css">
   <![CDATA[
    .fil1 {fill:black}
    .fil2 {fill:#FEFEFE}
    .fil0 {fill:white}
   ]]>
  </style>
 </defs>
 <g id="Layer_x0020_1">
  <metadata id="CorelCorpID_0Corel-Layer"/>
  <g id="_2243967737088">
   <path class="fil0" d="M6378.76 4561.7c451.42,-115.95 588.58,492.32 183.55,586.7 -439.62,102.43 -611.16,-476.86 -183.55,-586.7zm-2254.24 -4561.7l374.1 0c290.58,12.93 583.39,56.03 879.78,130.64 143.32,36.08 261.49,74.22 395.54,120.93l536.98 237.73c198.6,118.9 260.47,144.47 479.12,295.58 544.38,376.22 1174.59,1092.84 1419.46,1696.59 126.5,311.9 181.69,402.91 271.08,761.86 123.66,496.53 127.21,703.06 127.3,1192.03l0 23.5c0,532.86 -216.15,1395.77 -489.31,1852.04 -36.21,60.49 -57.64,107.67 -92.57,165.66 -67.75,112.47 -127.96,204.87 -203.01,313.46 -205.87,297.89 -370.05,448.53 -613.85,694.54 -176.13,177.73 -525.93,419.53 -743.21,547.97 -201.42,119.06 -490.92,255.31 -704.92,328.03 -427.99,145.43 -851.74,228.29 -1274.88,247.3l-377.11 0c-423.37,-19.07 -847.19,-102.47 -1275.08,-251.58 -135.62,-47.26 -235.69,-98.32 -364.82,-151.65 -521.51,-215.37 -1092.8,-704.28 -1466.77,-1132.8 -145.94,-167.23 -313.12,-413.23 -427.02,-605.92 -35.24,-59.62 -61.11,-111.68 -92.52,-165.72 -32.33,-55.63 -60.85,-115.67 -84.43,-173.81 -314.44,-775.28 -398.37,-1066.12 -398.37,-1977.4 0,-532.86 216.15,-1395.77 489.31,-1852.04 36.21,-60.49 57.64,-107.67 92.57,-165.66 306.82,-509.31 750.44,-1017.2 1246.22,-1353.36 320.62,-217.39 650.63,-405.54 1018.78,-530.64 425.25,-144.5 849.65,-228.35 1277.64,-247.3zm-1291.64 2777.33c710.24,-86.09 1256.17,432.74 1315.26,1061.95 67.11,714.63 -424.75,1247.17 -1053.59,1313.62 -1568.27,165.72 -1857.17,-2182.16 -261.67,-2375.57zm1584.32 501.88c37.12,-91.55 18.1,-324.48 14.51,-433.64 91.39,-30.26 465.02,-19.16 574.94,-9.06l8.65 444.8 897.98 -0.08 0.46 1856.53c-851.42,-2.97 -1477.77,152.67 -1480.61,-678.86 -0.78,-227.73 8.58,-469.92 -1.44,-703.7l-219.56 -3.02 -0.7 -470.51 205.78 -2.45zm1137.56 -780.91c433.88,-114.69 580.35,486.85 183.45,587.24 -433.44,109.63 -635.12,-467.84 -183.45,-587.24z"/>
   <path class="fil1" d="M2820.41 3296.72c897.4,-179.99 1013.47,1182.42 283.32,1337.13 -429.98,91.11 -695.88,-170.95 -753.08,-531.68 -66.25,-417.81 123.63,-736.02 469.75,-805.45zm12.46 -519.39c-1595.5,193.41 -1306.6,2541.29 261.67,2375.57 628.84,-66.45 1120.7,-598.99 1053.59,-1313.62 -59.09,-629.22 -605.02,-1148.05 -1315.26,-1061.95z"/>
   <path class="fil1" d="M5338.7 4647.38c-307.04,0.82 -332.79,24.27 -331.69,-291.77 0.7,-200.82 -3.05,-403.38 1.15,-604.7l332.24 -0.17 -1.7 896.64zm-921.51 -1368.17l-205.78 2.45 0.7 470.51 219.56 3.02c10.03,233.78 0.67,475.97 1.44,703.7 2.84,831.53 629.2,675.9 1480.61,678.86l-0.46 -1856.53 -897.98 0.08 -8.65 -444.8c-109.92,-10.1 -483.56,-21.2 -574.94,9.06 3.59,109.16 22.61,342.08 -14.51,433.64z"/>
   <path class="fil2" d="M2820.41 3296.72c-346.13,69.42 -536.01,387.64 -469.75,805.45 57.19,360.72 323.1,622.78 753.08,531.68 730.15,-154.71 614.08,-1517.11 -283.32,-1337.13z"/>
   <path class="fil1" d="M5554.75 2498.3c-451.67,119.4 -250,696.87 183.45,587.24 396.9,-100.38 250.43,-701.92 -183.45,-587.24z"/>
   <path class="fil1" d="M6378.76 4561.7c-427.61,109.84 -256.07,689.13 183.55,586.7 405.03,-94.37 267.87,-702.65 -183.55,-586.7z"/>
   <path class="fil2" d="M5338.7 4647.38l1.7 -896.64 -332.24 0.17c-4.19,201.32 -0.45,403.87 -1.15,604.7 -1.1,316.05 24.65,292.6 331.69,291.77z"/>
  </g>
 </g>
</svg>
